# xmcd
#
# Track frame offsets:
#	150
#	12043
#	23425
#	36335
#	46161
#	57904
#	74610
#	88216
#	97460
#	112381
#	124193
#	137063
#	150313
#	161052
#	174596
#
# Disc length: 2509 seconds
#
# Revision: 3
# Processed by: cddbd v1.5.2PL0 Copyright (c) Steve Scherf et al.
# Submitted via: audiograbber 1.83.01
#
DISCID=d009cb0f
DTITLE=Various Artist - Lifetime of Country Romance - I Can't Stop Lovin' You CD 2
DYEAR=2006
DGENRE=Country
TTITLE0=Don Gibson - I Can't Stop Lovin' You
TTITLE1=Hank Locklin - Send Me the Pillow You Dream On
TTITLE2=Marty Robbins - Devil Woman
TTITLE3=Eddie Arnold - What's He Doing in My World
TTITLE4=Johnny Cash - I Still Miss Someone
TTITLE5=Ray Price - I Won't Mention It Again
TTITLE6=Elvis Presley - Can't Help Falling in Love
TTITLE7=Charley Pride - Kiss an Angel Good Mornin'
TTITLE8=George Jones - He Stopped Loving Her Today
TTITLE9=Tammy Wynette - I Don't Wanna Play House
TTITLE10=Jim Reeves - Four Walls
TTITLE11=Crystal Gayle - Talking in Your Sleep
TTITLE12=Dolly Parton with Ricky Van Shelton - Love Is Like a Butterfly
TTITLE13=John Denver - Annie's Song
TTITLE14=Charlie Rich - Every Time You Touch Me (I Get High)
EXTD=
EXTT0=
EXTT1=
EXTT2=
EXTT3=
EXTT4=
EXTT5=
EXTT6=
EXTT7=
EXTT8=
EXTT9=
EXTT10=
EXTT11=
EXTT12=
EXTT13=
EXTT14=
PLAYORDER=
